# xmcd CD database file
#
# Track frame offsets:
#	150
#	7599
#	26286
#	49266
#	77407
#	98658
#	100995
#	113592
#	139058
#	160757
#
# Disc length: 2420 seconds
#
# Revision: 15
# Processed by: cddbd v1.5.2PL0 Copyright (c) Steve Scherf et al.
# Submitted via: CDex 1.70beta3
#
DISCID=6209720a
DTITLE=capsule - FRUITS CLiPPER
DYEAR=2006
DGENRE=Dance
TTITLE0=CS Entrance6
TTITLE1=FRUITS CLiPPER
TTITLE2=jelly (album-edit)
TTITLE3=CrazEEE Skyhopper
TTITLE4=5iVE STAR
TTITLE5=Endor
TTITLE6=Robot Disco
TTITLE7=super speeder Judy Jedy
TTITLE8=megalopolis
TTITLE9=dreamin dreamin
EXTD=YEAR: 2006
EXTT0=
EXTT1=
EXTT2=
EXTT3=
EXTT4=
EXTT5=
EXTT6=
EXTT7=
EXTT8=
EXTT9=
PLAYORDER=
